<svg xmlns="http://www.w3.org/2000/svg" viewBox="0 0 300 400">
  <rect width="300" height="400" fill="#080012"/>
  <polygon points="150,30 270,95 270,225 150,290 30,225 30,95" fill="#1a0033" stroke="#9900cc" stroke-width="3"/>
  <polygon points="150,55 248,108 248,212 150,265 52,212 52,108" fill="#220044" stroke="#cc0000" stroke-width="1" opacity="0.5"/>
  <!-- Ancient rune circle motif -->
  <circle cx="150" cy="160" r="46" fill="none" stroke="#9900cc" stroke-width="2" opacity="0.5"/>
  <circle cx="150" cy="160" r="34" fill="none" stroke="#9900cc" stroke-width="1" opacity="0.3"/>
  <line x1="150" y1="114" x2="150" y2="206" stroke="#cc0000" stroke-width="1" opacity="0.4"/>
  <line x1="104" y1="160" x2="196" y2="160" stroke="#cc0000" stroke-width="1" opacity="0.4"/>
  <line x1="118" y1="128" x2="182" y2="192" stroke="#9900cc" stroke-width="1" opacity="0.3"/>
  <line x1="182" y1="128" x2="118" y2="192" stroke="#9900cc" stroke-width="1" opacity="0.3"/>
  <circle cx="150" cy="160" r="8" fill="none" stroke="#cc0000" stroke-width="2" opacity="0.6"/>
  <text x="150" y="205" font-family="Arial Black, Arial" font-size="110" fill="#9900cc" text-anchor="middle" font-weight="900" opacity="0.08">K</text>
  <line x1="60" y1="320" x2="240" y2="320" stroke="#9900cc" stroke-width="1" opacity="0.4"/>
  <text x="150" y="360" font-family="Arial Black, Arial" font-size="32" fill="#ffffff" text-anchor="middle" font-weight="900" letter-spacing="5">KUUGA</text>
  <text x="150" y="385" font-family="Arial" font-size="12" fill="#9900cc" text-anchor="middle" opacity="0.7" letter-spacing="3">HEISEI-01</text>
</svg>
