<svg xmlns="http://www.w3.org/2000/svg" viewBox="0 0 300 400">
  <rect width="300" height="400" fill="#120200"/>
  <polygon points="150,30 270,95 270,225 150,290 30,225 30,95" fill="#2e0600" stroke="#cc2200" stroke-width="3"/>
  <polygon points="150,55 248,108 248,212 150,265 52,212 52,108" fill="#3a0800" stroke="#cc8800" stroke-width="1" opacity="0.5"/>
  <!-- Sword blade pointing up, book pages at base -->
  <polygon points="150,112 157,185 150,195 143,185" fill="none" stroke="#cc8800" stroke-width="2" opacity="0.6"/>
  <polygon points="150,118 155,182 150,190 145,182" fill="#cc2200" opacity="0.15"/>
  <!-- Book pages -->
  <line x1="118" y1="192" x2="150" y2="185" stroke="#cc8800" stroke-width="1.5" opacity="0.5"/>
  <line x1="182" y1="192" x2="150" y2="185" stroke="#cc8800" stroke-width="1.5" opacity="0.5"/>
  <line x1="114" y1="198" x2="186" y2="198" stroke="#cc8800" stroke-width="2" opacity="0.4"/>
  <line x1="118" y1="204" x2="182" y2="204" stroke="#cc8800" stroke-width="1" opacity="0.3"/>
  <!-- Flame wisps -->
  <path d="M138,125 Q130,115 136,108 Q132,118 140,120" fill="none" stroke="#cc2200" stroke-width="1.5" opacity="0.4"/>
  <path d="M162,125 Q170,115 164,108 Q168,118 160,120" fill="none" stroke="#cc2200" stroke-width="1.5" opacity="0.4"/>
  <line x1="60" y1="320" x2="240" y2="320" stroke="#cc2200" stroke-width="1" opacity="0.4"/>
  <text x="150" y="360" font-family="Arial Black, Arial" font-size="32" fill="#ffffff" text-anchor="middle" font-weight="900" letter-spacing="5">SABER</text>
  <text x="150" y="385" font-family="Arial" font-size="12" fill="#cc8800" text-anchor="middle" opacity="0.7" letter-spacing="3">REIWA-02</text>
</svg>
