<svg xmlns="http://www.w3.org/2000/svg" viewBox="0 0 300 400">
  <rect width="300" height="400" fill="#020a04"/>
  <polygon points="150,30 270,95 270,225 150,290 30,225 30,95" fill="#051a08" stroke="#00cc44" stroke-width="3"/>
  <polygon points="150,55 248,108 248,212 150,265 52,212 52,108" fill="#072210" stroke="#aaaaaa" stroke-width="1" opacity="0.4"/>
  <!-- Circuit / AI motif -->
  <line x1="100" y1="130" x2="150" y2="130" stroke="#00cc44" stroke-width="1.5" opacity="0.6"/>
  <line x1="150" y1="130" x2="150" y2="155" stroke="#00cc44" stroke-width="1.5" opacity="0.6"/>
  <line x1="150" y1="155" x2="200" y2="155" stroke="#00cc44" stroke-width="1.5" opacity="0.6"/>
  <line x1="200" y1="155" x2="200" y2="185" stroke="#aaaaaa" stroke-width="1.5" opacity="0.5"/>
  <line x1="100" y1="185" x2="200" y2="185" stroke="#aaaaaa" stroke-width="1.5" opacity="0.5"/>
  <line x1="100" y1="155" x2="100" y2="185" stroke="#aaaaaa" stroke-width="1.5" opacity="0.5"/>
  <line x1="100" y1="155" x2="130" y2="155" stroke="#00cc44" stroke-width="1.5" opacity="0.6"/>
  <circle cx="150" cy="130" r="4" fill="#00cc44" opacity="0.7"/>
  <circle cx="200" cy="155" r="4" fill="#aaaaaa" opacity="0.6"/>
  <circle cx="100" cy="185" r="4" fill="#00cc44" opacity="0.7"/>
  <line x1="60" y1="320" x2="240" y2="320" stroke="#00cc44" stroke-width="1" opacity="0.4"/>
  <text x="150" y="356" font-family="Arial Black, Arial" font-size="22" fill="#ffffff" text-anchor="middle" font-weight="900" letter-spacing="2">ZERO-ONE</text>
  <text x="150" y="385" font-family="Arial" font-size="12" fill="#00cc44" text-anchor="middle" opacity="0.7" letter-spacing="3">REIWA-01</text>
</svg>
