<svg xmlns="http://www.w3.org/2000/svg" viewBox="0 0 300 400">
  <rect width="300" height="400" fill="#060010"/>
  <polygon points="150,30 270,95 270,225 150,290 30,225 30,95" fill="#0e0028" stroke="#7700cc" stroke-width="3"/>
  <polygon points="150,55 248,108 248,212 150,265 52,212 52,108" fill="#140035" stroke="#cc44ff" stroke-width="1" opacity="0.5"/>
  <!-- Fang / jaw motif -->
  <path d="M110,130 Q150,110 190,130 L182,175 Q166,190 150,195 Q134,190 118,175 Z" fill="none" stroke="#7700cc" stroke-width="2" opacity="0.5"/>
  <!-- Fang teeth -->
  <line x1="130" y1="172" x2="126" y2="192" stroke="#cc44ff" stroke-width="2" stroke-linecap="round" opacity="0.6"/>
  <line x1="142" y1="180" x2="140" y2="200" stroke="#cc44ff" stroke-width="2" stroke-linecap="round" opacity="0.6"/>
  <line x1="158" y1="180" x2="160" y2="200" stroke="#cc44ff" stroke-width="2" stroke-linecap="round" opacity="0.6"/>
  <line x1="170" y1="172" x2="174" y2="192" stroke="#cc44ff" stroke-width="2" stroke-linecap="round" opacity="0.6"/>
  <!-- Eyes -->
  <ellipse cx="132" cy="148" rx="8" ry="6" fill="none" stroke="#cc44ff" stroke-width="1.5" opacity="0.7"/>
  <ellipse cx="168" cy="148" rx="8" ry="6" fill="none" stroke="#cc44ff" stroke-width="1.5" opacity="0.7"/>
  <ellipse cx="132" cy="148" rx="3" ry="3" fill="#7700cc" opacity="0.6"/>
  <ellipse cx="168" cy="148" rx="3" ry="3" fill="#7700cc" opacity="0.6"/>
  <line x1="60" y1="320" x2="240" y2="320" stroke="#7700cc" stroke-width="1" opacity="0.4"/>
  <text x="150" y="360" font-family="Arial Black, Arial" font-size="36" fill="#ffffff" text-anchor="middle" font-weight="900" letter-spacing="7">GAVV</text>
  <text x="150" y="385" font-family="Arial" font-size="12" fill="#cc44ff" text-anchor="middle" opacity="0.7" letter-spacing="3">REIWA-06</text>
</svg>
