<svg xmlns="http://www.w3.org/2000/svg" viewBox="0 0 300 400">
  <rect width="300" height="400" fill="#080600"/>
  <polygon points="150,30 270,95 270,225 150,290 30,225 30,95" fill="#1a1200" stroke="#cc9900" stroke-width="3"/>
  <polygon points="150,55 248,108 248,212 150,265 52,212 52,108" fill="#221800" stroke="#111111" stroke-width="1" opacity="0.6"/>
  <!-- Fox ear silhouette motif -->
  <polygon points="122,175 108,128 138,158" fill="none" stroke="#cc9900" stroke-width="2" opacity="0.6"/>
  <polygon points="178,175 192,128 162,158" fill="none" stroke="#cc9900" stroke-width="2" opacity="0.6"/>
  <!-- Fox face oval -->
  <ellipse cx="150" cy="178" rx="28" ry="22" fill="none" stroke="#cc9900" stroke-width="2" opacity="0.4"/>
  <!-- Eyes -->
  <ellipse cx="138" cy="173" rx="5" ry="6" fill="none" stroke="#cc9900" stroke-width="1.5" opacity="0.6"/>
  <ellipse cx="162" cy="173" rx="5" ry="6" fill="none" stroke="#cc9900" stroke-width="1.5" opacity="0.6"/>
  <circle cx="138" cy="173" r="2" fill="#cc9900" opacity="0.5"/>
  <circle cx="162" cy="173" r="2" fill="#cc9900" opacity="0.5"/>
  <line x1="60" y1="320" x2="240" y2="320" stroke="#cc9900" stroke-width="1" opacity="0.4"/>
  <text x="150" y="360" font-family="Arial Black, Arial" font-size="32" fill="#ffffff" text-anchor="middle" font-weight="900" letter-spacing="5">GEATS</text>
  <text x="150" y="385" font-family="Arial" font-size="12" fill="#cc9900" text-anchor="middle" opacity="0.7" letter-spacing="3">REIWA-04</text>
</svg>
