<svg xmlns="http://www.w3.org/2000/svg" viewBox="0 0 300 400">
  <rect width="300" height="400" fill="#080010"/>
  <polygon points="150,30 270,95 270,225 150,290 30,225 30,95" fill="#1a0030" stroke="#ff1493" stroke-width="3"/>
  <polygon points="150,55 248,108 248,212 150,265 52,212 52,108" fill="#200040" stroke="#00ff44" stroke-width="1" opacity="0.5"/>
  <!-- Pixel/game motif — small squares -->
  <rect x="88" y="108" width="10" height="10" fill="#ff1493" opacity="0.5"/>
  <rect x="100" y="108" width="10" height="10" fill="#ff1493" opacity="0.5"/>
  <rect x="190" y="118" width="10" height="10" fill="#00ff44" opacity="0.5"/>
  <rect x="202" y="118" width="10" height="10" fill="#00ff44" opacity="0.5"/>
  <rect x="88" y="220" width="10" height="10" fill="#00ff44" opacity="0.4"/>
  <rect x="202" y="210" width="10" height="10" fill="#ff1493" opacity="0.4"/>
  <text x="150" y="205" font-family="Arial Black, Arial" font-size="110" fill="#ff1493" text-anchor="middle" font-weight="900" opacity="0.15">E</text>
  <text x="150" y="200" font-family="Arial Black, Arial" font-size="110" fill="none" stroke="#ff1493" stroke-width="2" text-anchor="middle" font-weight="900">E</text>
  <line x1="60" y1="320" x2="240" y2="320" stroke="#ff1493" stroke-width="1" opacity="0.4"/>
  <text x="150" y="358" font-family="Arial Black, Arial" font-size="24" fill="#ffffff" text-anchor="middle" font-weight="900" letter-spacing="3">EX-AID</text>
  <text x="150" y="385" font-family="Arial" font-size="12" fill="#00ff44" text-anchor="middle" opacity="0.7" letter-spacing="3">HEISEI-18</text>
</svg>
